<mxfile host="app.diagrams.net" modified="2023-11-13T11:40:56.221Z" agent="Mozilla/5.0 (Windows NT 10.0; Win64; x64; rv:109.0) Gecko/20100101 Firefox/119.0" etag="zEzAx2QGFH4Gl_coBqSd" version="22.1.0" type="device">
  <diagram id="IKdcczgC__YtXfX8UIwX" name="Page-1">
    <mxGraphModel dx="1242" dy="659" grid="1" gridSize="10" guides="1" tooltips="1" connect="1" arrows="1" fold="1" page="1" pageScale="1" pageWidth="827" pageHeight="1169" math="0" shadow="0">
      <root>
        <mxCell id="0" />
        <mxCell id="1" parent="0" />
        <mxCell id="m_R6_4stdK32f-bWhgOH-1" value="&lt;b&gt;Krankenhaus&lt;/b&gt;" style="html=1;fontStyle=0;points=[[0,0,0,0,0],[0,0.25,0,0,0],[0,0.5,0,0,0],[0,0.75,0,0,0],[0,1,0,0,0],[0.08,1,0,0,0],[0.17,1,0,0,0],[0.25,0,0,0,0],[0.25,1,0,0,0],[0.33,1,0,0,0],[0.42,1,0,0,0],[0.5,0,0,0,0],[0.5,1,0,0,0],[0.58,1,0,0,0],[0.67,1,0,0,0],[0.75,0,0,0,0],[0.75,1,0,0,0],[0.83,1,0,0,0],[0.92,1,0,0,0],[1,0,0,0,0],[1,0.25,0,0,0],[1,0.5,0,0,0],[1,0.75,0,0,0],[1,1,0,0,0]];" parent="1" vertex="1">
          <mxGeometry x="80" y="120" width="120" height="40" as="geometry" />
        </mxCell>
        <mxCell id="19y9xz3U2XeAm1oFRW64-1" value="&lt;b&gt;Zimmer&lt;/b&gt;" style="html=1;fontStyle=0;points=[[0,0,0,0,0],[0,0.25,0,0,0],[0,0.5,0,0,0],[0,0.75,0,0,0],[0,1,0,0,0],[0.08,0,0,0,0],[0.17,0,0,0,0],[0.25,0,0,0,0],[0.25,1,0,0,0],[0.33,0,0,0,0],[0.42,0,0,0,0],[0.5,0,0,0,0],[0.5,1,0,0,0],[0.58,0,0,0,0],[0.67,0,0,0,0],[0.75,0,0,0,0],[0.75,1,0,0,0],[0.83,0,0,0,0],[0.92,0,0,0,0],[1,0,0,0,0],[1,0.25,0,0,0],[1,0.5,0,0,0],[1,0.75,0,0,0],[1,1,0,0,0]];" parent="1" vertex="1">
          <mxGeometry x="160" y="240" width="120" height="40" as="geometry" />
        </mxCell>
        <mxCell id="19y9xz3U2XeAm1oFRW64-4" value="" style="endArrow=diamondThin;html=1;endFill=1;verticalAlign=bottom;exitX=0.17;exitY=0;exitDx=0;exitDy=0;endSize=15;exitPerimeter=0;entryX=0.83;entryY=1;entryDx=0;entryDy=0;entryPerimeter=0;" parent="1" source="19y9xz3U2XeAm1oFRW64-1" target="m_R6_4stdK32f-bWhgOH-1" edge="1">
          <mxGeometry relative="1" as="geometry">
            <mxPoint x="330" y="140" as="sourcePoint" />
            <mxPoint x="160" y="200" as="targetPoint" />
          </mxGeometry>
        </mxCell>
        <mxCell id="19y9xz3U2XeAm1oFRW64-5" value="&lt;sub&gt;&lt;font style=&quot;font-size: 9px;&quot;&gt;&lt;font style=&quot;font-size: 10px;&quot;&gt;1..&lt;/font&gt;&lt;/font&gt;&lt;font style=&quot;font-size: 9px;&quot;&gt;&lt;font style=&quot;font-size: 10px;&quot;&gt;*&lt;/font&gt;&lt;/font&gt;&lt;/sub&gt;" style="resizable=0;html=1;align=left;verticalAlign=bottom;labelBackgroundColor=none;fontSize=10;spacingTop=0;spacingLeft=4;spacing=0;spacingBottom=4;" parent="19y9xz3U2XeAm1oFRW64-4" connectable="0" vertex="1">
          <mxGeometry x="-1" relative="1" as="geometry" />
        </mxCell>
        <mxCell id="19y9xz3U2XeAm1oFRW64-6" value="1" style="resizable=0;html=1;align=left;verticalAlign=top;labelBackgroundColor=none;fontSize=10;spacingLeft=7;spacing=0;spacingBottom=0;spacingRight=0;spacingTop=-1;" parent="19y9xz3U2XeAm1oFRW64-4" connectable="0" vertex="1">
          <mxGeometry x="1" relative="1" as="geometry" />
        </mxCell>
        <mxCell id="JmjxSlmsnYEWM4IQD_mA-7" value="&lt;b&gt;Schule&lt;/b&gt;" style="html=1;fontStyle=0;points=[[0,0,0,0,0],[0,0.25,0,0,0],[0,0.5,0,0,0],[0,0.75,0,0,0],[0,1,0,0,0],[0.08,1,0,0,0],[0.17,1,0,0,0],[0.25,0,0,0,0],[0.25,1,0,0,0],[0.33,1,0,0,0],[0.42,1,0,0,0],[0.5,0,0,0,0],[0.5,1,0,0,0],[0.58,1,0,0,0],[0.67,1,0,0,0],[0.75,0,0,0,0],[0.75,1,0,0,0],[0.83,1,0,0,0],[0.92,1,0,0,0],[1,0,0,0,0],[1,0.25,0,0,0],[1,0.5,0,0,0],[1,0.75,0,0,0],[1,1,0,0,0]];" parent="1" vertex="1">
          <mxGeometry x="240" y="120" width="120" height="40" as="geometry" />
        </mxCell>
        <mxCell id="JmjxSlmsnYEWM4IQD_mA-8" value="" style="endArrow=diamondThin;html=1;endFill=1;verticalAlign=bottom;exitX=0.83;exitY=0;exitDx=0;exitDy=0;endSize=15;exitPerimeter=0;" parent="1" source="19y9xz3U2XeAm1oFRW64-1" edge="1">
          <mxGeometry relative="1" as="geometry">
            <mxPoint x="200" y="250" as="sourcePoint" />
            <mxPoint x="260" y="160" as="targetPoint" />
          </mxGeometry>
        </mxCell>
        <mxCell id="JmjxSlmsnYEWM4IQD_mA-9" value="&lt;sub&gt;&lt;font style=&quot;font-size: 9px;&quot;&gt;&lt;font style=&quot;font-size: 10px;&quot;&gt;1..&lt;/font&gt;&lt;/font&gt;&lt;font style=&quot;font-size: 9px;&quot;&gt;&lt;font style=&quot;font-size: 10px;&quot;&gt;*&lt;/font&gt;&lt;/font&gt;&lt;/sub&gt;" style="resizable=0;html=1;align=left;verticalAlign=bottom;labelBackgroundColor=none;fontSize=10;spacingTop=0;spacingLeft=4;spacing=0;spacingBottom=4;" parent="JmjxSlmsnYEWM4IQD_mA-8" connectable="0" vertex="1">
          <mxGeometry x="-1" relative="1" as="geometry" />
        </mxCell>
        <mxCell id="JmjxSlmsnYEWM4IQD_mA-10" value="1" style="resizable=0;html=1;align=left;verticalAlign=top;labelBackgroundColor=none;fontSize=10;spacingLeft=7;spacing=0;spacingBottom=0;spacingRight=0;spacingTop=-1;" parent="JmjxSlmsnYEWM4IQD_mA-8" connectable="0" vertex="1">
          <mxGeometry x="1" relative="1" as="geometry" />
        </mxCell>
        <mxCell id="JmjxSlmsnYEWM4IQD_mA-11" value="{XOR}" style="endArrow=none;html=1;rounded=0;strokeColor=#000000;strokeWidth=1;fontSize=10;fontColor=#000000;endSize=6;dashed=1;verticalAlign=bottom;labelBackgroundColor=none;" parent="1" edge="1">
          <mxGeometry width="50" height="50" relative="1" as="geometry">
            <mxPoint x="160" y="200" as="sourcePoint" />
            <mxPoint x="280" y="200" as="targetPoint" />
          </mxGeometry>
        </mxCell>
      </root>
    </mxGraphModel>
  </diagram>
</mxfile>
